<svg xmlns="http://www.w3.org/2000/svg" width="20" height="20" viewBox="0 0 20 20">
  <g id="icon_apple" transform="translate(0 0)">
    <rect id="area" width="20" height="20" fill="none"/>
    <g id="그룹_53764" data-name="그룹 53764" transform="translate(-321.557 -210.935)">
      <g id="그룹_53763" data-name="그룹 53763" transform="translate(323.557 210.935)">
        <path id="패스_20276" data-name="패스 20276" d="M337.16,256.957a4.517,4.517,0,0,1,2.159-3.8,4.681,4.681,0,0,0-3.654-1.987c-1.559-.157-3.043.919-3.83.919s-2.01-.893-3.3-.868a4.895,4.895,0,0,0-4.139,2.5c-1.763,3.061-.453,7.6,1.269,10.078.839,1.215,1.839,2.579,3.153,2.53,1.269-.049,1.748-.819,3.279-.819s1.961.819,3.3.8c1.362-.028,2.227-1.243,3.058-2.458a11.09,11.09,0,0,0,1.386-2.847A4.412,4.412,0,0,1,337.16,256.957Z" transform="translate(-323.557 -246.334)" fill="#fff"/>
        <path id="패스_20277" data-name="패스 20277" d="M394.081,214.127a4.386,4.386,0,0,0,1.041-3.192,4.478,4.478,0,0,0-2.944,1.514,4.19,4.19,0,0,0-1.063,3.1A3.711,3.711,0,0,0,394.081,214.127Z" transform="translate(-382.998 -210.935)" fill="#fff"/>
      </g>
    </g>
  </g>
</svg>
