<svg xmlns="http://www.w3.org/2000/svg" width="20" height="20" viewBox="0 0 20 20">
  <g id="icon_google" transform="translate(-309.998 -428)">
    <rect id="area" width="20" height="20" transform="translate(309.998 428)" fill="none"/>
    <g id="그룹_19705" data-name="그룹 19705" transform="translate(310.248 428)">
      <path id="패스_18618" data-name="패스 18618" d="M701.763,709.83a11.428,11.428,0,0,0-.181-2.035h-9.371v3.849h5.355a4.578,4.578,0,0,1-1.985,3v2.5H698.8a9.7,9.7,0,0,0,2.967-7.313Z" transform="translate(-682.261 -699.654)" fill="#3e82f1" fill-rule="evenodd"/>
      <path id="패스_18619" data-name="패스 18619" d="M606.244,755.321a9.5,9.5,0,0,0,6.585-2.411l-3.216-2.5a6,6,0,0,1-8.937-3.152h-3.324v2.578a9.946,9.946,0,0,0,8.891,5.481Z" transform="translate(-596.295 -735.422)" fill="#32a753" fill-rule="evenodd"/>
      <path id="패스_18620" data-name="패스 18620" d="M590.444,685.783a5.883,5.883,0,0,1,0-3.781v-2.578H587.12a9.962,9.962,0,0,0,0,8.937l3.324-2.578Z" transform="translate(-586.062 -673.943)" fill="#f9bb00" fill-rule="evenodd"/>
      <path id="패스_18621" data-name="패스 18621" d="M606.244,624.9a5.375,5.375,0,0,1,3.8,1.488l2.854-2.854a9.562,9.562,0,0,0-6.657-2.592,9.946,9.946,0,0,0-8.891,5.482L600.677,629a5.93,5.93,0,0,1,5.567-4.1Z" transform="translate(-596.295 -620.945)" fill="#e74133" fill-rule="evenodd"/>
    </g>
  </g>
</svg>
